<?xml version="1.0" standalone="no"?><!DOCTYPE svg PUBLIC "-//W3C//DTD SVG 1.1//EN" "http://www.w3.org/Graphics/SVG/1.1/DTD/svg11.dtd"><svg t="1647329707370" class="icon" viewBox="0 0 1024 1024" version="1.1" xmlns="http://www.w3.org/2000/svg" p-id="1370" xmlns:xlink="http://www.w3.org/1999/xlink" width="64" height="64"><defs><style type="text/css"></style></defs><path d="M436.7 604.3H281.8c-25.4 0-46-20.6-46-46s20.6-45.9 46-45.9h184c7.7 0 14.6 2.2 20.9 5.6 50.6-59.3 125-97.7 209.1-97.7 50.5 0 97.1 14.5 137.8 38.2V162.4c-0.2-35.4-28.9-64.1-64.4-64.1h-607c-35.4 0-64.2 28.7-64.4 64.1v699.9c0 21.7 10.9 42 29.1 53.8 18.1 11.9 41 13.9 60.9 5.3l257-111.7c-15.7-34.6-24.9-72.8-24.9-113.3-0.1-32.4 6.5-63.1 16.8-92.1z m-154.9-322h368c25.4 0 46 20.6 46 46s-20.6 46-46 46h-368c-25.4 0-46-20.6-46-46s20.6-46 46-46z m0 0" p-id="1371"></path><path d="M680.7 826.5l-115.2-121c-9.9-10.2-10.2-27.1-0.9-37.7 9.4-10.7 25.1-11.1 34.9-1l98.7 103.9 188-203.4c-41.4-61-111.2-101-190.3-101-127.1 0-230 103-230 230 0 127.1 103 230 230 230 127.1 0 230-103 230-230 0-28.5-5.2-55.8-14.7-80.9l-194.9 211c-9.9 10.6-25.7 10.6-35.6 0.1z m0 0" p-id="1372"></path></svg>