<?xml version="1.0" standalone="no"?><!DOCTYPE svg PUBLIC "-//W3C//DTD SVG 1.1//EN" "http://www.w3.org/Graphics/SVG/1.1/DTD/svg11.dtd"><svg t="1647331365627" class="icon" viewBox="0 0 1024 1024" version="1.1" xmlns="http://www.w3.org/2000/svg" p-id="2632" xmlns:xlink="http://www.w3.org/1999/xlink" width="64" height="64"><defs><style type="text/css"></style></defs><path d="M837.182662 955.748546 192.403566 955.748546 59.530326 91.25026l900.284327 0-0.497327 3.500731L837.182662 955.748546zM197.67257 949.608709l634.17969 0L952.741561 97.390098 66.686307 97.390098 197.67257 949.608709z" p-id="2633"></path><path d="M332.520791 519.320733l-6.139837 0c0-101.734032 82.765005-184.502108 184.498014-184.502108 44.790112 0 87.976704 16.243963 121.605615 45.738717 33.32192 29.227672 55.029314 69.385277 61.122079 113.077382l-6.081509 0.848321c-12.20395-87.523379-88.145549-153.523559-176.646186-153.523559C412.532079 340.959485 332.520791 420.971797 332.520791 519.320733z" p-id="2634"></path><path d="M327.547523 523.521404 294.220487 466.75861 299.514049 463.649805 329.735351 515.120061 377.69976 486.98528 380.806517 492.281913Z" p-id="2635"></path><path d="M510.878968 703.860702c-44.254923 0-87.052658-15.910365-120.509654-44.801369-33.114189-28.593222-55.04671-68.019163-61.758576-111.011326l6.066159-0.947582c13.624299 87.275739 87.72804 150.620439 176.202071 150.620439 98.348935 0 178.363294-80.029708 178.363294-178.400133l6.139837 0C695.382099 621.077278 612.614024 703.860702 510.878968 703.860702z" p-id="2636"></path><path d="M722.926432 575.027475 692.69592 523.522428 644.761188 551.657208 641.653407 546.362622 694.882726 515.119037 728.221018 571.919694Z" p-id="2637"></path></svg>