<?xml version="1.0" standalone="no"?><!DOCTYPE svg PUBLIC "-//W3C//DTD SVG 1.1//EN" "http://www.w3.org/Graphics/SVG/1.1/DTD/svg11.dtd"><svg t="1647594698892" class="icon" viewBox="0 0 1024 1024" version="1.1" xmlns="http://www.w3.org/2000/svg" p-id="1335" width="64" height="64" xmlns:xlink="http://www.w3.org/1999/xlink"><defs><style type="text/css"></style></defs><path d="M128 128l768 0 0 64-768 0 0-64Z" p-id="1336"></path><path d="M128 768l768 0 0 128-768 0 0-128Z" p-id="1337"></path><path d="M512 691.2 512 691.2c19.2 0 32-12.8 32-32L544 352l83.2 83.2C640 448 659.2 448 665.6 435.2l6.4-6.4c12.8-12.8 12.8-25.6 0-38.4L537.6 256C531.2 249.6 524.8 243.2 512 243.2l0 0C499.2 243.2 492.8 249.6 486.4 256L352 390.4c-12.8 12.8-12.8 25.6 0 38.4l6.4 6.4C364.8 448 384 448 396.8 435.2l83.2-83.2 0 307.2C480 672 492.8 691.2 512 691.2z" p-id="1338"></path></svg>