<?xml version="1.0" standalone="no"?><!DOCTYPE svg PUBLIC "-//W3C//DTD SVG 1.1//EN" "http://www.w3.org/Graphics/SVG/1.1/DTD/svg11.dtd"><svg t="1647331626776" class="icon" viewBox="0 0 1024 1024" version="1.1" xmlns="http://www.w3.org/2000/svg" p-id="11080" xmlns:xlink="http://www.w3.org/1999/xlink" width="64" height="64"><defs><style type="text/css"></style></defs><path d="M722.9 253H299.8c-39.9 0-72.5 32.6-72.5 72.5v459.4c0 39.9 32.6 72.5 72.5 72.5h423.1c39.9 0 72.5-32.6 72.5-72.5V325.5c0-39.9-32.6-72.5-72.5-72.5zM349.4 396.4h196.5c14.3 0 25.9 11.6 25.9 25.9s-11.6 25.9-25.9 25.9H349.4c-14.3 0-25.9-11.6-25.9-25.9s11.6-25.9 25.9-25.9zM471.5 714h-122c-14.3 0-25.9-11.6-25.9-25.9 0-14.3 11.6-25.9 25.9-25.9h122c14.3 0 25.9 11.6 25.9 25.9 0 14.3-11.6 25.9-25.9 25.9z m186.2-132.9H349.4c-14.3 0-25.9-11.6-25.9-25.9 0-14.3 11.6-25.9 25.9-25.9h308.3c14.3 0 25.9 11.6 25.9 25.9 0 14.3-11.6 25.9-25.9 25.9zM349.4 218.4h308.3c14.3 0 25.9-11.6 25.9-25.9 0-14.3-11.6-25.9-25.9-25.9H349.4c-14.3 0-25.9 11.6-25.9 25.9 0 14.3 11.6 25.9 25.9 25.9z" p-id="11081"></path></svg>