<?xml version="1.0" standalone="no"?><!DOCTYPE svg PUBLIC "-//W3C//DTD SVG 1.1//EN" "http://www.w3.org/Graphics/SVG/1.1/DTD/svg11.dtd"><svg t="1647331526446" class="icon" viewBox="0 0 1024 1024" version="1.1" xmlns="http://www.w3.org/2000/svg" p-id="6475" xmlns:xlink="http://www.w3.org/1999/xlink" width="64" height="64"><defs><style type="text/css"></style></defs><path d="M832.783673 929.959184H191.216327V477.518367c0-45.97551 37.616327-83.591837 83.591836-83.591836h474.383674c45.97551 0 83.591837 37.616327 83.591836 83.591836V929.959184z m-599.771428-41.795919h557.97551V477.518367c0-22.987755-18.808163-41.795918-41.795918-41.795918H274.808163c-22.987755 0-41.795918 18.808163-41.795918 41.795918V888.163265z" p-id="6476"></path><path d="M580.440816 929.959184H443.559184c-28.734694 0-52.244898-23.510204-52.244898-52.244898v-137.404082c0-28.734694 23.510204-52.244898 52.244898-52.244898h137.404081c28.734694 0 52.244898 23.510204 52.244898 52.244898V877.714286c-0.522449 28.734694-23.510204 52.244898-52.767347 52.244898z m-136.881632-200.09796c-5.746939 0-10.44898 4.702041-10.44898 10.44898V877.714286c0 5.746939 4.702041 10.44898 10.44898 10.448979h137.404081c5.746939 0 10.44898-4.702041 10.44898-10.448979v-137.404082c0-5.746939-4.702041-10.44898-10.44898-10.44898H443.559184z" p-id="6477"></path><path d="M909.061224 929.959184H114.938776c-11.493878 0-20.897959-9.404082-20.89796-20.89796s9.404082-20.897959 20.89796-20.897959h794.122448c11.493878 0 20.897959 9.404082 20.89796 20.897959s-9.404082 20.897959-20.89796 20.89796zM679.183673 435.722449H339.591837c-11.493878 0-20.897959-9.404082-20.897959-20.897959V214.726531c0-7.314286 4.179592-14.106122 10.448979-17.763266l169.795919-99.787755c6.791837-3.657143 14.628571-3.657143 21.420408 0l169.795918 99.787755c6.269388 3.657143 10.44898 10.44898 10.44898 17.763266v200.097959c-0.522449 11.493878-9.926531 20.897959-21.420409 20.897959z m-318.693877-41.795918h297.795918v-167.183674L509.387755 138.971429 360.489796 226.742857v167.183674z" p-id="6478"></path><path d="M509.387755 356.832653c-11.493878 0-20.897959-9.404082-20.897959-20.897959v-120.163265c0-11.493878 9.404082-20.897959 20.897959-20.89796s20.897959 9.404082 20.897959 20.89796v120.163265c0 11.493878-9.404082 20.897959-20.897959 20.897959z" p-id="6479"></path><path d="M569.469388 296.75102H449.306122c-11.493878 0-20.897959-9.404082-20.897959-20.897959s9.404082-20.897959 20.897959-20.897959h120.163266c11.493878 0 20.897959 9.404082 20.897959 20.897959s-9.404082 20.897959-20.897959 20.897959zM379.297959 540.734694H299.363265c-11.493878 0-20.897959-9.404082-20.897959-20.897959s9.404082-20.897959 20.897959-20.897959h79.934694c11.493878 0 20.897959 9.404082 20.897959 20.897959s-9.404082 20.897959-20.897959 20.897959zM549.616327 540.734694H469.159184c-11.493878 0-20.897959-9.404082-20.89796-20.897959s9.404082-20.897959 20.89796-20.897959h79.934694c11.493878 0 20.897959 9.404082 20.897959 20.897959s-8.881633 20.897959-20.37551 20.897959zM719.412245 540.734694h-79.934694c-11.493878 0-20.897959-9.404082-20.897959-20.897959s9.404082-20.897959 20.897959-20.897959h79.934694c11.493878 0 20.897959 9.404082 20.897959 20.897959s-9.404082 20.897959-20.897959 20.897959zM379.297959 629.028571H299.363265c-11.493878 0-20.897959-9.404082-20.897959-20.897959s9.404082-20.897959 20.897959-20.897959h79.934694c11.493878 0 20.897959 9.404082 20.897959 20.897959s-9.404082 20.897959-20.897959 20.897959zM549.616327 629.028571H469.159184c-11.493878 0-20.897959-9.404082-20.89796-20.897959s9.404082-20.897959 20.89796-20.897959h79.934694c11.493878 0 20.897959 9.404082 20.897959 20.897959s-8.881633 20.897959-20.37551 20.897959z" p-id="6480"></path><path d="M719.412245 629.028571h-79.934694c-11.493878 0-20.897959-9.404082-20.897959-20.897959s9.404082-20.897959 20.897959-20.897959h79.934694c11.493878 0 20.897959 9.404082 20.897959 20.897959s-9.404082 20.897959-20.897959 20.897959z" p-id="6481"></path></svg>