<?xml version="1.0" standalone="no"?><!DOCTYPE svg PUBLIC "-//W3C//DTD SVG 1.1//EN" "http://www.w3.org/Graphics/SVG/1.1/DTD/svg11.dtd"><svg t="1647331659412" class="icon" viewBox="0 0 1024 1024" version="1.1" xmlns="http://www.w3.org/2000/svg" p-id="11913" xmlns:xlink="http://www.w3.org/1999/xlink" width="64" height="64"><defs><style type="text/css"></style></defs><path d="M959.825022 234.949415C959.825022 140.5022 883.262992 63.940169 788.815776 63.940169H234.949415C140.5022 63.940169 63.940169 140.5022 63.940169 234.949415v553.866361C63.940169 883.262992 140.5022 959.825022 234.949415 959.825022h553.866361c94.443603 0 171.009246-76.562031 171.009246-171.009246V234.949415z m-63.940168 554.039758c0 28.599679-11.050451 55.400363-31.272884 75.622797S817.588852 895.884854 788.989173 895.884854H235.007214c-28.599679 0-55.515961-11.050451-75.738394-31.272884S127.880338 817.588852 127.880338 788.989173V235.007214A107.170226 107.170226 0 0 1 235.007214 127.880338h553.981959c28.599679 0 55.400363 11.166049 75.622797 31.388482S895.884854 206.407535 895.884854 235.007214v553.981959z" fill="" p-id="11914"></path><path d="M799.999887 289.356358H224.000113a31.970084 31.970084 0 0 0 0 63.940169h575.999774a31.970084 31.970084 0 0 0 0-63.940169zM799.999887 480.093133H224.000113a31.970084 31.970084 0 1 0 0 63.940169h575.999774a31.970084 31.970084 0 1 0 0-63.940169zM799.999887 670.829908H224.000113a31.970084 31.970084 0 0 0 0 63.940169h575.999774a31.970084 31.970084 0 0 0 0-63.940169z" fill="" p-id="11915"></path></svg>