<?xml version="1.0" standalone="no"?><!DOCTYPE svg PUBLIC "-//W3C//DTD SVG 1.1//EN" "http://www.w3.org/Graphics/SVG/1.1/DTD/svg11.dtd"><svg t="1647331537797" class="icon" viewBox="0 0 1024 1024" version="1.1" xmlns="http://www.w3.org/2000/svg" p-id="7306" xmlns:xlink="http://www.w3.org/1999/xlink" width="64" height="64"><defs><style type="text/css"></style></defs><path d="M854.32 956H177.68c-60.48 0-109.68-49.2-109.68-109.68V169.68c0-60.48 49.2-109.68 109.68-109.68h676.72c60.48 0 109.68 49.2 109.68 109.68v676.72c-0.08 60.4-49.28 109.6-109.76 109.6z m-676.64-856c-38.4 0-69.68 31.28-69.68 69.68v676.72c0 38.4 31.28 69.68 69.68 69.68h676.72c38.4 0 69.68-31.28 69.68-69.68V169.68c0-38.4-31.28-69.68-69.68-69.68H177.68z" p-id="7307"></path><path d="M684 144h-336c-37.52 0-68-30.48-68-68C280 38.48 310.48 8 348 8h336C721.52 8 752 38.48 752 76c0 37.52-30.48 68-68 68z" fill="#FF826E" p-id="7308"></path><path d="M684 48C699.44 48 712 60.56 712 76S699.44 104 684 104h-336c-15.44 0-28-12.56-28-28S332.56 48 348 48h336m0-40h-336C310.48 8 280 38.48 280 76s30.48 68 68 68h336c37.52 0 68-30.48 68-68S721.52 8 684 8zM264 312h496v32H264zM264 496h496v32H264z" p-id="7309"></path><path d="M384 688h256v32H384z" fill="#FF826E" p-id="7310"></path></svg>