<?xml version="1.0" standalone="no"?><!DOCTYPE svg PUBLIC "-//W3C//DTD SVG 1.1//EN" "http://www.w3.org/Graphics/SVG/1.1/DTD/svg11.dtd"><svg t="1647331290215" class="icon" viewBox="0 0 1024 1024" version="1.1" xmlns="http://www.w3.org/2000/svg" p-id="8205" xmlns:xlink="http://www.w3.org/1999/xlink" width="64" height="64"><defs><style type="text/css"></style></defs><path d="M736 704h-448c-19.2 0-32-12.8-32-32s12.8-32 32-32h448c19.2 0 32 12.8 32 32s-12.8 32-32 32zM736 832h-448c-19.2 0-32-12.8-32-32s12.8-32 32-32h448c19.2 0 32 12.8 32 32s-12.8 32-32 32z" fill="#333333" p-id="8206"></path><path d="M832 128c38.4 0 64 25.6 64 64v640c0 38.4-25.6 64-64 64H192c-38.4 0-64-25.6-64-64V192c0-38.4 25.6-64 64-64h640m0-64H192c-70.4 0-128 57.6-128 128v640c0 70.4 57.6 128 128 128h640c70.4 0 128-57.6 128-128V192c0-70.4-57.6-128-128-128z" fill="#333333" p-id="8207"></path><path d="M512 441.6c-70.4 0-121.6-57.6-121.6-128S441.6 192 512 192s121.6 57.6 121.6 121.6-51.2 128-121.6 128zM512 256c-32 0-57.6 25.6-57.6 57.6s25.6 57.6 57.6 57.6 57.6-25.6 57.6-57.6S544 256 512 256z" fill="#333333" p-id="8208"></path><path d="M710.4 576h-64c0-76.8-64-134.4-134.4-134.4S377.6 499.2 377.6 576h-64c0-108.8 89.6-198.4 198.4-198.4s198.4 89.6 198.4 198.4z" fill="#333333" p-id="8209"></path></svg>