<?xml version="1.0" standalone="no"?><!DOCTYPE svg PUBLIC "-//W3C//DTD SVG 1.1//EN" "http://www.w3.org/Graphics/SVG/1.1/DTD/svg11.dtd"><svg t="1647331504570" class="icon" viewBox="0 0 1024 1024" version="1.1" xmlns="http://www.w3.org/2000/svg" p-id="4842" xmlns:xlink="http://www.w3.org/1999/xlink" width="64" height="64"><defs><style type="text/css"></style></defs><path d="M925.866667 951.466667h-392.533334c-55.466667 0-98.133333-55.466667-98.133333-132.266667V204.8c0-72.533333 42.666667-132.266667 98.133333-132.266667h392.533334C981.333333 72.533333 1024 128 1024 204.8v618.666667c0 72.533333-42.666667 128-98.133333 128zM533.333333 157.866667c-4.266667 4.266667-12.8 21.333333-12.8 46.933333v618.666667c0 25.6 12.8 42.666667 17.066667 46.933333h388.266667c4.266667 0 12.8-17.066667 12.8-46.933333V204.8c0-25.6-12.8-42.666667-17.066667-46.933333h-388.266667z" fill="#333333" p-id="4843"></path><path d="M840.533333 362.666667h-221.866666c-25.6 0-42.666667-17.066667-42.666667-42.666667s17.066667-42.666667 42.666667-42.666667h221.866666c25.6 0 42.666667 17.066667 42.666667 42.666667s-17.066667 42.666667-42.666667 42.666667zM477.866667 554.666667H256c-25.6 0-42.666667-17.066667-42.666667-42.666667s17.066667-42.666667 42.666667-42.666667h221.866667c25.6 0 42.666667 17.066667 42.666666 42.666667s-17.066667 42.666667-42.666666 42.666667zM349.866667 243.2H238.933333c-25.6 0-42.666667-17.066667-42.666666-42.666667s17.066667-42.666667 42.666666-42.666666h110.933334c25.6 0 42.666667 17.066667 42.666666 42.666666s-17.066667 42.666667-42.666666 42.666667zM349.866667 866.133333H238.933333c-25.6 0-42.666667-17.066667-42.666666-42.666666s17.066667-42.666667 42.666666-42.666667h110.933334c25.6 0 42.666667 17.066667 42.666666 42.666667s-17.066667 42.666667-42.666666 42.666666z" fill="#333333" p-id="4844"></path><path d="M349.866667 866.133333c-25.6 0-42.666667-17.066667-42.666667-42.666666V200.533333c0-25.6 17.066667-42.666667 42.666667-42.666666s42.666667 17.066667 42.666666 42.666666v622.933334c0 25.6-17.066667 42.666667-42.666666 42.666666zM840.533333 554.666667h-221.866666c-25.6 0-42.666667-17.066667-42.666667-42.666667s17.066667-42.666667 42.666667-42.666667h221.866666c25.6 0 42.666667 17.066667 42.666667 42.666667s-17.066667 42.666667-42.666667 42.666667zM840.533333 746.666667h-221.866666c-25.6 0-42.666667-17.066667-42.666667-42.666667s17.066667-42.666667 42.666667-42.666667h221.866666c25.6 0 42.666667 17.066667 42.666667 42.666667s-17.066667 42.666667-42.666667 42.666667zM192 328.533333H59.733333C25.6 328.533333 0 298.666667 0 264.533333V132.266667c0-34.133333 25.6-59.733333 59.733333-59.733334h132.266667c34.133333 0 64 25.6 64 59.733334v132.266666c0 34.133333-29.866667 64-64 64zM85.333333 243.2h85.333334v-85.333333H85.333333v85.333333z m106.666667-85.333333zM192 640H59.733333C25.6 640 0 610.133333 0 580.266667v-132.266667C0 413.866667 25.6 384 59.733333 384h132.266667c34.133333 0 64 29.866667 64 59.733333v132.266667c0 34.133333-29.866667 64-64 64zM85.333333 554.666667h85.333334v-85.333334H85.333333v85.333334z m106.666667-85.333334zM192 951.466667H59.733333c-34.133333 0-59.733333-25.6-59.733333-59.733334v-132.266666c0-34.133333 25.6-59.733333 59.733333-59.733334h132.266667c34.133333-4.266667 64 25.6 64 59.733334v132.266666c0 34.133333-29.866667 59.733333-64 59.733334z m-106.666667-85.333334h85.333334v-85.333333H85.333333v85.333333z m106.666667-85.333333z" fill="#333333" p-id="4845"></path></svg>