<?xml version="1.0" standalone="no"?><!DOCTYPE svg PUBLIC "-//W3C//DTD SVG 1.1//EN" "http://www.w3.org/Graphics/SVG/1.1/DTD/svg11.dtd"><svg t="1647331594239" class="icon" viewBox="0 0 1024 1024" version="1.1" xmlns="http://www.w3.org/2000/svg" p-id="9417" xmlns:xlink="http://www.w3.org/1999/xlink" width="64" height="64"><defs><style type="text/css"></style></defs><path d="M237.052 94.052L819 95v481.03C819 786 576 880 512 880s-307-96-307-303.97V126.052c0-17.673 14.327-32 32-32h0.052zM392.392 254a32 32 0 0 0-28.136 16.759L304 382c46.222 20.588 115.556 30.882 208 30.882 81.522 0 145.072-8.005 190.649-24.016a16 16 0 0 0 2.318-1.027c7.77-4.208 10.656-13.919 6.448-21.689L650.667 254H392.393zM512 619l208-206c-46.944 20.667-116.278 31-208 31-85.813 0-152.03-9.045-198.649-27.135a2 2 0 0 0-2.13 3.286L512 619z" p-id="9418"></path></svg>