<?xml version="1.0" standalone="no"?><!DOCTYPE svg PUBLIC "-//W3C//DTD SVG 1.1//EN" "http://www.w3.org/Graphics/SVG/1.1/DTD/svg11.dtd"><svg t="1647331517143" class="icon" viewBox="0 0 1024 1024" version="1.1" xmlns="http://www.w3.org/2000/svg" p-id="5501" xmlns:xlink="http://www.w3.org/1999/xlink" width="64" height="64"><defs><style type="text/css"></style></defs><path d="M344.1 403.6m-84.7 0a84.7 84.7 0 1 0 169.4 0 84.7 84.7 0 1 0-169.4 0Z" p-id="5502"></path><path d="M474.1 705H212c-11 0-20-9-20-20v-6.4c0-82.5 67.5-150 150-150h2.1c82.5 0 150 67.5 150 150v6.4c0 11-9 20-20 20zM822.1 700H569.6c-11 0-20-9-20-20v-10c0-11 9-20 20-20h252.5c11 0 20 9 20 20v10c0 11-9 20-20 20zM822.1 609H569.6c-11 0-20-9-20-20v-10c0-11 9-20 20-20h252.5c11 0 20 9 20 20v10c0 11-9 20-20 20zM705.6 442h-133c-11 0-20-9-20-20v-10c0-11 9-20 20-20h133c11 0 20 9 20 20v10c0 11-9 20-20 20z" p-id="5503"></path><path d="M665.1 348.5v133c0 11-9 20-20 20h-10c-11 0-20-9-20-20v-133c0-11 9-20 20-20h10c11 0 20 8.9 20 20z" p-id="5504"></path><path d="M898.5 241.8c5.4 0 10 4.6 10 10v519.9c0 5.4-4.6 10-10 10H123.3c-5.4 0-10-4.6-10-10V251.8c0-5.4 4.6-10 10-10h775.2m0-50H123.3c-33 0-60 27-60 60v519.9c0 33 27 60 60 60h775.2c33 0 60-27 60-60V251.8c0-33-27-60-60-60z" p-id="5505"></path></svg>