<?xml version="1.0" standalone="no"?><!DOCTYPE svg PUBLIC "-//W3C//DTD SVG 1.1//EN" "http://www.w3.org/Graphics/SVG/1.1/DTD/svg11.dtd"><svg t="1647331429466" class="icon" viewBox="0 0 1024 1024" version="1.1" xmlns="http://www.w3.org/2000/svg" p-id="4391" xmlns:xlink="http://www.w3.org/1999/xlink" width="64" height="64"><defs><style type="text/css"></style></defs><path d="M975.98109 0a48.575059 48.575059 0 0 0-18.367644 3.647929h-0.063999l-0.447991 0.191997L511.99008 188.028357 66.878704 3.839926 66.430713 3.711928 66.366714 3.647929A47.99907 47.99907 0 0 0 0 47.99907v735.98574a47.99907 47.99907 0 0 0 29.887421 44.479139l463.095027 191.612287a47.935071 47.935071 0 0 0 38.015264 0l463.031029-191.612287A47.99907 47.99907 0 0 0 1023.98016 783.98481V47.99907a47.99907 47.99907 0 0 0-47.99907-47.99907zM447.99132 895.98264l-383.99256-149.117111V127.99752l383.99256 149.117111V895.98264z m239.99535-463.99101a47.99907 47.99907 0 0 1-19.839615-91.710223l175.99659-79.99845a47.99907 47.99907 0 0 1 39.679231 87.358307l-175.99659 79.99845a47.423081 47.423081 0 0 1-19.839616 4.351916z m0 191.99628a47.99907 47.99907 0 0 1-19.839615-91.646224l175.99659-79.99845a47.99907 47.99907 0 0 1 39.679231 87.358307l-175.99659 79.99845a47.551079 47.551079 0 0 1-19.839616 4.287917z m0 191.99628a47.99907 47.99907 0 0 1-19.839615-91.646224l175.99659-79.99845a47.99907 47.99907 0 0 1 39.679231 87.358307l-175.99659 79.99845a47.48708 47.48708 0 0 1-19.839616 4.287917zM959.9814 746.865529L575.98884 895.98264V277.114631L959.9814 127.99752v618.868009zM156.156974 347.705263a47.99907 47.99907 0 0 1 39.679232-87.422306l175.99659 79.99845a47.99907 47.99907 0 1 1-39.679231 87.422306l-175.996591-79.99845z m0 191.99628a47.99907 47.99907 0 1 1 39.679232-87.358307l175.99659 79.99845a47.99907 47.99907 0 0 1-39.679231 87.358307l-175.996591-79.99845z m0 191.99628a47.99907 47.99907 0 0 1 39.679232-87.422306l175.99659 79.99845a47.99907 47.99907 0 1 1-39.679231 87.422306l-175.996591-79.99845z" p-id="4392"></path></svg>