<?xml version="1.0" standalone="no"?><!DOCTYPE svg PUBLIC "-//W3C//DTD SVG 1.1//EN" "http://www.w3.org/Graphics/SVG/1.1/DTD/svg11.dtd"><svg t="1647331574524" class="icon" viewBox="0 0 1024 1024" version="1.1" xmlns="http://www.w3.org/2000/svg" p-id="8367" xmlns:xlink="http://www.w3.org/1999/xlink" width="64" height="64"><defs><style type="text/css"></style></defs><path d="M1024.16512 768s-167.936 256-384 256a353.344 353.344 0 0 1-192-64.576V960a450.624 450.624 0 0 1-448-448 439.552 439.552 0 0 1 384-448v128a300.8 300.8 0 0 0-256 320 309.376 309.376 0 0 0 137.92 269.504c-6.016-8.32-9.472-13.504-9.472-13.504s154.176-256 384-256S1024.16512 768 1024.16512 768z m-384-128a363.52 363.52 0 0 0-256 128 320 320 0 0 0 512 0 363.52 363.52 0 0 0-256-128z m0 192a64 64 0 1 1 64-64 64 64 0 0 1-64 64zM448.16512 512V0a512 512 0 0 1 512 512H448.16512z m128-384v256h256c0-63.36-192-256-256-256z" p-id="8368"></path></svg>